<?xml version="1.0" encoding="UTF-8" standalone="no"?>
<!-- Created with Inkscape (http://www.inkscape.org/) -->

<svg
   xmlns:dc="http://purl.org/dc/elements/1.1/"
   xmlns:cc="http://creativecommons.org/ns#"
   xmlns:rdf="http://www.w3.org/1999/02/22-rdf-syntax-ns#"
   xmlns:svg="http://www.w3.org/2000/svg"
   xmlns="http://www.w3.org/2000/svg"
   xmlns:xlink="http://www.w3.org/1999/xlink"
   xmlns:sodipodi="http://sodipodi.sourceforge.net/DTD/sodipodi-0.dtd"
   xmlns:inkscape="http://www.inkscape.org/namespaces/inkscape"
   width="279.26929mm"
   height="114.91772mm"
   viewBox="0 0 989.53683 407.18875"
   id="svg2"
   version="1.1"
   inkscape:version="0.91 r13725"
   inkscape:export-filename="/home/igor/Desktop/rect5582.png"
   inkscape:export-xdpi="90"
   inkscape:export-ydpi="90"
   sodipodi:docname="log.svg">
  <defs
     id="defs4">
    <linearGradient
       inkscape:collect="always"
       id="linearGradient5572">
      <stop
         style="stop-color:#32ba9e;stop-opacity:1;"
         offset="0"
         id="stop5574" />
      <stop
         id="stop5580"
         offset="0.78114146"
         style="stop-color:#2a9e88;stop-opacity:0.30980393" />
      <stop
         style="stop-color:#31b99f;stop-opacity:0.55392158"
         offset="1"
         id="stop5576" />
    </linearGradient>
    <linearGradient
       inkscape:collect="always"
       id="linearGradient5456">
      <stop
         style="stop-color:#ffffff;stop-opacity:1;"
         offset="0"
         id="stop5458" />
      <stop
         id="stop5464"
         offset="0.75433779"
         style="stop-color:#f4f4f4;stop-opacity:1" />
      <stop
         style="stop-color:#ffffff;stop-opacity:0"
         offset="1"
         id="stop5460" />
    </linearGradient>
    <linearGradient
       inkscape:collect="always"
       id="linearGradient5440">
      <stop
         style="stop-color:#37c8ab;stop-opacity:1;"
         offset="0"
         id="stop5442" />
      <stop
         id="stop5454"
         offset="0.39795363"
         style="stop-color:#289d85;stop-opacity:0.45098039;" />
      <stop
         style="stop-color:#32bba0;stop-opacity:0.55686277"
         offset="1"
         id="stop5444" />
    </linearGradient>
    <linearGradient
       inkscape:collect="always"
       xlink:href="#linearGradient5440"
       id="linearGradient5446"
       x1="223.98547"
       y1="616.8681"
       x2="352.017"
       y2="460.96271"
       gradientUnits="userSpaceOnUse"
       gradientTransform="matrix(1.6820121,0,0,1.6820121,-65.535297,-355.06027)" />
    <linearGradient
       inkscape:collect="always"
       xlink:href="#linearGradient5456"
       id="linearGradient5462"
       x1="-137.72278"
       y1="735.05676"
       x2="966.89594"
       y2="-207.81299"
       gradientUnits="userSpaceOnUse" />
    <linearGradient
       inkscape:collect="always"
       xlink:href="#linearGradient5456"
       id="linearGradient5530"
       gradientUnits="userSpaceOnUse"
       x1="-137.72278"
       y1="735.05676"
       x2="966.89594"
       y2="-207.81299" />
    <linearGradient
       inkscape:collect="always"
       xlink:href="#linearGradient5456"
       id="linearGradient5532"
       gradientUnits="userSpaceOnUse"
       x1="-137.72278"
       y1="735.05676"
       x2="966.89594"
       y2="-207.81299" />
    <linearGradient
       inkscape:collect="always"
       xlink:href="#linearGradient5456"
       id="linearGradient5534"
       gradientUnits="userSpaceOnUse"
       x1="-137.72278"
       y1="735.05676"
       x2="966.89594"
       y2="-207.81299" />
    <linearGradient
       inkscape:collect="always"
       xlink:href="#linearGradient5456"
       id="linearGradient5536"
       gradientUnits="userSpaceOnUse"
       x1="-137.72278"
       y1="735.05676"
       x2="966.89594"
       y2="-207.81299" />
    <linearGradient
       inkscape:collect="always"
       xlink:href="#linearGradient5456"
       id="linearGradient5538"
       gradientUnits="userSpaceOnUse"
       x1="-137.72278"
       y1="735.05676"
       x2="966.89594"
       y2="-207.81299" />
    <linearGradient
       inkscape:collect="always"
       xlink:href="#linearGradient5456"
       id="linearGradient5540"
       gradientUnits="userSpaceOnUse"
       x1="-137.72278"
       y1="735.05676"
       x2="966.89594"
       y2="-207.81299" />
    <linearGradient
       inkscape:collect="always"
       xlink:href="#linearGradient5456"
       id="linearGradient5542"
       gradientUnits="userSpaceOnUse"
       x1="-137.72278"
       y1="735.05676"
       x2="966.89594"
       y2="-207.81299" />
    <linearGradient
       inkscape:collect="always"
       xlink:href="#linearGradient5456"
       id="linearGradient5544"
       gradientUnits="userSpaceOnUse"
       x1="-137.72278"
       y1="735.05676"
       x2="966.89594"
       y2="-207.81299" />
    <linearGradient
       inkscape:collect="always"
       xlink:href="#linearGradient5456"
       id="linearGradient5546"
       gradientUnits="userSpaceOnUse"
       x1="-137.72278"
       y1="735.05676"
       x2="966.89594"
       y2="-207.81299" />
    <linearGradient
       inkscape:collect="always"
       xlink:href="#linearGradient5456"
       id="linearGradient5548"
       gradientUnits="userSpaceOnUse"
       x1="-137.72278"
       y1="735.05676"
       x2="966.89594"
       y2="-207.81299" />
    <linearGradient
       inkscape:collect="always"
       xlink:href="#linearGradient5456"
       id="linearGradient5550"
       gradientUnits="userSpaceOnUse"
       x1="-137.72278"
       y1="735.05676"
       x2="966.89594"
       y2="-207.81299" />
    <linearGradient
       inkscape:collect="always"
       xlink:href="#linearGradient5456"
       id="linearGradient5552"
       gradientUnits="userSpaceOnUse"
       x1="-137.72278"
       y1="735.05676"
       x2="966.89594"
       y2="-207.81299" />
    <linearGradient
       inkscape:collect="always"
       xlink:href="#linearGradient5456"
       id="linearGradient5554"
       gradientUnits="userSpaceOnUse"
       x1="-137.72278"
       y1="735.05676"
       x2="966.89594"
       y2="-207.81299" />
    <linearGradient
       inkscape:collect="always"
       xlink:href="#linearGradient5456"
       id="linearGradient5556"
       gradientUnits="userSpaceOnUse"
       x1="-137.72278"
       y1="735.05676"
       x2="966.89594"
       y2="-207.81299" />
    <linearGradient
       inkscape:collect="always"
       xlink:href="#linearGradient5456"
       id="linearGradient5558"
       gradientUnits="userSpaceOnUse"
       x1="-137.72278"
       y1="735.05676"
       x2="966.89594"
       y2="-207.81299" />
    <linearGradient
       inkscape:collect="always"
       xlink:href="#linearGradient5456"
       id="linearGradient5560"
       gradientUnits="userSpaceOnUse"
       x1="-137.72278"
       y1="735.05676"
       x2="966.89594"
       y2="-207.81299" />
    <linearGradient
       inkscape:collect="always"
       xlink:href="#linearGradient5456"
       id="linearGradient5562"
       gradientUnits="userSpaceOnUse"
       x1="-137.72278"
       y1="735.05676"
       x2="966.89594"
       y2="-207.81299" />
    <linearGradient
       inkscape:collect="always"
       xlink:href="#linearGradient5456"
       id="linearGradient5564"
       gradientUnits="userSpaceOnUse"
       x1="-137.72278"
       y1="735.05676"
       x2="966.89594"
       y2="-207.81299" />
    <linearGradient
       inkscape:collect="always"
       xlink:href="#linearGradient5456"
       id="linearGradient5566"
       gradientUnits="userSpaceOnUse"
       x1="-137.72278"
       y1="735.05676"
       x2="966.89594"
       y2="-207.81299" />
    <linearGradient
       inkscape:collect="always"
       xlink:href="#linearGradient5456"
       id="linearGradient5568"
       gradientUnits="userSpaceOnUse"
       x1="-137.72278"
       y1="735.05676"
       x2="966.89594"
       y2="-207.81299" />
    <linearGradient
       inkscape:collect="always"
       xlink:href="#linearGradient5572"
       id="linearGradient5578"
       x1="347.14282"
       y1="578.07648"
       x2="1002.4794"
       y2="746.32843"
       gradientUnits="userSpaceOnUse" />
  </defs>
  <sodipodi:namedview
     id="base"
     pagecolor="#ffffff"
     bordercolor="#666666"
     borderopacity="1.0"
     inkscape:pageopacity="0.0"
     inkscape:pageshadow="2"
     inkscape:zoom="0.7"
     inkscape:cx="463.96704"
     inkscape:cy="173.30581"
     inkscape:document-units="px"
     inkscape:current-layer="layer1"
     showgrid="false"
     showguides="true"
     inkscape:guide-bbox="true"
     fit-margin-top="0"
     fit-margin-left="0"
     fit-margin-right="0"
     fit-margin-bottom="0"
     inkscape:window-width="1366"
     inkscape:window-height="714"
     inkscape:window-x="0"
     inkscape:window-y="26"
     inkscape:window-maximized="1">
    <sodipodi:guide
       position="378.29807,159.03421"
       orientation="0,1"
       id="guide4344" />
    <sodipodi:guide
       position="322.58379,290.46277"
       orientation="0,1"
       id="guide4346" />
  </sodipodi:namedview>
  <metadata
     id="metadata7">
    <rdf:RDF>
      <cc:Work
         rdf:about="">
        <dc:format>image/svg+xml</dc:format>
        <dc:type
           rdf:resource="http://purl.org/dc/dcmitype/StillImage" />
        <dc:title></dc:title>
      </cc:Work>
    </rdf:RDF>
  </metadata>
  <g
     inkscape:label="Layer 1"
     inkscape:groupmode="layer"
     id="layer1"
     transform="translate(-24.559055,-461.35052)"
     style="opacity:0.97">
    <rect
       style="opacity:1;fill:#ffffff;fill-opacity:1;stroke:none;stroke-width:1.796;stroke-miterlimit:4;stroke-dasharray:none;stroke-opacity:1"
       id="rect5582"
       width="989.5368"
       height="407.18875"
       x="24.559055"
       y="461.35052"
       ry="0"
       inkscape:export-xdpi="90"
       inkscape:export-ydpi="90" />
    <text
       xml:space="preserve"
       style="font-style:normal;font-weight:normal;font-size:40px;line-height:125%;font-family:sans-serif;letter-spacing:0px;word-spacing:0px;fill:url(#linearGradient5578);fill-opacity:1;stroke:none;stroke-width:1px;stroke-linecap:butt;stroke-linejoin:miter;stroke-opacity:1"
       x="285.38254"
       y="708.92816"
       id="text4136"
       sodipodi:linespacing="125%"
       inkscape:export-xdpi="90"
       inkscape:export-ydpi="90"><tspan
         sodipodi:role="line"
         id="tspan4138"
         x="285.38254"
         y="708.92816"
         style="font-style:normal;font-variant:normal;font-weight:bold;font-stretch:normal;font-size:180px;font-family:'Roboto Mono';-inkscape-font-specification:'Roboto Mono Bold';fill:url(#linearGradient5578);fill-opacity:1">SNAP<tspan
   style="font-style:normal;font-variant:normal;font-weight:300;font-stretch:normal;font-size:180px;font-family:'Roboto Mono';-inkscape-font-specification:'Roboto Mono Light';fill:url(#linearGradient5578);fill-opacity:1"
   id="tspan4140">AY</tspan></tspan></text>
    <circle
       style="opacity:1;fill:url(#linearGradient5446);fill-opacity:1;stroke:none;stroke-width:1.796;stroke-miterlimit:4;stroke-dasharray:none;stroke-opacity:1"
       id="path5077"
       cx="361.75568"
       cy="564.35968"
       r="89.945663"
       transform="matrix(0.95683786,0.29062227,-0.29062227,0.95683786,0,0)" />
    <g
       style="display:inline;fill:url(#linearGradient5462);fill-opacity:1;stroke-width:13.31882954;stroke-miterlimit:4;stroke-dasharray:none"
       id="g5346"
       transform="matrix(0.22681375,0,0,0.22681375,108.80705,574.99399)">
      <g
         id="g5300"
         style="fill:url(#linearGradient5538);fill-opacity:1;stroke-width:13.31882954;stroke-miterlimit:4;stroke-dasharray:none">
        <g
           id="g5302"
           style="fill:url(#linearGradient5536);fill-opacity:1;stroke-width:13.31882954;stroke-miterlimit:4;stroke-dasharray:none">
          <path
             id="path5304"
             d="M 588.63,113.193 213.812,33.871 c -15.858,-3.355 -31.576,6.876 -34.931,22.734 l -7.121,45.762 432.477,91.519 7.121,-45.762 c 3.355,-15.852 -6.87,-31.575 -22.728,-34.931 z"
             inkscape:connector-curvature="0"
             style="fill:url(#linearGradient5530);fill-opacity:1;stroke-width:13.31882954;stroke-miterlimit:4;stroke-dasharray:none" />
          <path
             id="path5306"
             d="m 431.009,203.591 c -4.378,-15.766 -20.854,-25.085 -36.615,-20.714 L 323.24,202.63 155.498,167.13 137.05,254.295 21.786,286.287 c -15.76,4.372 -25.079,20.848 -20.708,36.609 l 64.958,234.078 c 4.378,15.76 20.855,25.085 36.615,20.708 L 475.259,474.279 c 15.76,-4.378 25.079,-20.848 20.708,-36.615 l -11.15,-40.184 41.789,8.835 c 15.858,3.361 31.576,-6.87 34.931,-22.728 L 587.976,258.65 437.45,226.797 431.009,203.591 Z m 43.031,118.968 9.215,-43.552 c 1.384,-6.521 7.85,-10.727 14.37,-9.35 l 43.552,9.221 c 6.527,1.384 10.733,7.843 9.356,14.37 l -9.215,43.552 c -1.384,6.521 -7.849,10.733 -14.37,9.35 l -43.552,-9.215 c -6.533,-1.389 -10.74,-7.855 -9.356,-14.376 z M 28.27,309.646 131.385,281.04 l 243.299,-67.517 26.181,-7.274 c 0.478,-0.129 0.955,-0.19 1.421,-0.19 2.1,0 4.611,1.378 5.345,4.017 l 3.074,11.07 9.631,34.704 L 37.148,362.186 24.443,316.418 c -0.796,-2.872 0.956,-5.976 3.827,-6.772 z m 444.331,134.495 c 0.49,1.776 -0.024,3.245 -0.545,4.164 -0.514,0.918 -1.506,2.119 -3.282,2.608 L 96.173,554.316 c -0.471,0.129 -0.955,0.196 -1.421,0.196 -2.1,0 -4.611,-1.384 -5.345,-4.023 L 51.519,413.955 434.707,307.613 l 23.371,84.208 14.523,52.32 z"
             inkscape:connector-curvature="0"
             style="fill:url(#linearGradient5532);fill-opacity:1;stroke-width:13.31882954;stroke-miterlimit:4;stroke-dasharray:none" />
          <path
             id="path5308"
             d="m 156.379,453.484 c -1.788,-6.429 -8.499,-10.225 -14.928,-8.443 l -43.515,12.08 c -6.423,1.782 -10.225,8.499 -8.437,14.928 l 12.074,43.509 c 1.788,6.429 8.499,10.225 14.928,8.437 l 43.515,-12.074 c 6.429,-1.782 10.225,-8.499 8.443,-14.928 l -12.08,-43.509 z"
             inkscape:connector-curvature="0"
             style="fill:url(#linearGradient5534);fill-opacity:1;stroke-width:13.31882954;stroke-miterlimit:4;stroke-dasharray:none" />
        </g>
      </g>
      <g
         id="g5310"
         style="fill:url(#linearGradient5540);fill-opacity:1;stroke-width:13.31882954;stroke-miterlimit:4;stroke-dasharray:none" />
      <g
         id="g5312"
         style="fill:url(#linearGradient5542);fill-opacity:1;stroke-width:13.31882954;stroke-miterlimit:4;stroke-dasharray:none" />
      <g
         id="g5314"
         style="fill:url(#linearGradient5544);fill-opacity:1;stroke-width:13.31882954;stroke-miterlimit:4;stroke-dasharray:none" />
      <g
         id="g5316"
         style="fill:url(#linearGradient5546);fill-opacity:1;stroke-width:13.31882954;stroke-miterlimit:4;stroke-dasharray:none" />
      <g
         id="g5318"
         style="fill:url(#linearGradient5548);fill-opacity:1;stroke-width:13.31882954;stroke-miterlimit:4;stroke-dasharray:none" />
      <g
         id="g5320"
         style="fill:url(#linearGradient5550);fill-opacity:1;stroke-width:13.31882954;stroke-miterlimit:4;stroke-dasharray:none" />
      <g
         id="g5322"
         style="fill:url(#linearGradient5552);fill-opacity:1;stroke-width:13.31882954;stroke-miterlimit:4;stroke-dasharray:none" />
      <g
         id="g5324"
         style="fill:url(#linearGradient5554);fill-opacity:1;stroke-width:13.31882954;stroke-miterlimit:4;stroke-dasharray:none" />
      <g
         id="g5326"
         style="fill:url(#linearGradient5556);fill-opacity:1;stroke-width:13.31882954;stroke-miterlimit:4;stroke-dasharray:none" />
      <g
         id="g5328"
         style="fill:url(#linearGradient5558);fill-opacity:1;stroke-width:13.31882954;stroke-miterlimit:4;stroke-dasharray:none" />
      <g
         id="g5330"
         style="fill:url(#linearGradient5560);fill-opacity:1;stroke-width:13.31882954;stroke-miterlimit:4;stroke-dasharray:none" />
      <g
         id="g5332"
         style="fill:url(#linearGradient5562);fill-opacity:1;stroke-width:13.31882954;stroke-miterlimit:4;stroke-dasharray:none" />
      <g
         id="g5334"
         style="fill:url(#linearGradient5564);fill-opacity:1;stroke-width:13.31882954;stroke-miterlimit:4;stroke-dasharray:none" />
      <g
         id="g5336"
         style="fill:url(#linearGradient5566);fill-opacity:1;stroke-width:13.31882954;stroke-miterlimit:4;stroke-dasharray:none" />
      <g
         id="g5338"
         style="fill:url(#linearGradient5568);fill-opacity:1;stroke-width:13.31882954;stroke-miterlimit:4;stroke-dasharray:none" />
    </g>
  </g>
  <g
     inkscape:groupmode="layer"
     id="layer2"
     inkscape:label="Layer 2"
     style="display:none"
     transform="translate(-24.559055,-153.0828)">
    <g
       id="g4325"
       transform="matrix(0.07537898,0,0,0.07537898,257.74551,368.25791)"
       style="fill:#282828;fill-opacity:1">
      <g
         id="g4285"
         style="fill:#282828;fill-opacity:1">
        <path
           id="path4287"
           d="m 309.43,219.944 c -19,-10.5 -39.2,-18.5 -59.2,-26.8 -11.6,-4.8 -22.7,-10.4 -32.5,-18.2 -19.3,-15.4 -15.6,-40.4 7,-50.3 6.4,-2.8 13.1,-3.7 19.9,-4.1 26.2,-1.4 51.1,3.4 74.8,14.8 11.8,5.7 15.7,3.9 19.7,-8.4 4.2,-13 7.7,-26.2 11.6,-39.3 2.6,-8.8 -0.6,-14.6 -8.9,-18.3 -15.2,-6.7 -30.8,-11.5 -47.2,-14.1 -21.4,-3.3 -21.4,-3.4 -21.5,-24.9 -0.1,-30.3 -0.1,-30.3 -30.5,-30.3 -4.4,0 -8.8,-0.1 -13.2,0 -14.2,0.4 -16.6,2.9 -17,17.2 -0.2,6.4 0,12.8 -0.1,19.3 -0.1,19 -0.2,18.7 -18.4,25.3 -44,16 -71.2,46 -74.1,94 -2.6,42.5 19.6,71.2 54.5,92.1 21.5,12.9 45.3,20.5 68.1,30.6 8.9,3.9 17.4,8.4 24.8,14.6 21.9,18.1 17.9,48.2 -8.1,59.6 -13.9,6.1 -28.6,7.6 -43.7,5.7 -23.3,-2.9 -45.6,-9 -66.6,-19.9 -12.3,-6.4 -15.9,-4.7 -20.1,8.6 -3.6,11.5 -6.8,23.1 -10,34.7 -4.3,15.6 -2.7,19.3 12.2,26.6 19,9.2 39.3,13.9 60,17.2 16.2,2.6 16.7,3.3 16.9,20.1 0.1,7.6 0.1,15.3 0.2,22.9 0.1,9.6 4.7,15.2 14.6,15.4 11.2,0.2 22.5,0.2 33.7,-0.1 9.2,-0.2 13.9,-5.2 13.9,-14.5 0,-10.4 0.5,-20.9 0.1,-31.3 -0.5,-10.6 4.1,-16 14.3,-18.8 23.5,-6.4 43.5,-19 58.9,-37.8 42.8,-52 26.5,-128.1 -34.1,-161.6 z"
           inkscape:connector-curvature="0"
           style="fill:#282828;fill-opacity:1" />
      </g>
      <g
         id="g4289"
         style="fill:#282828;fill-opacity:1" />
      <g
         id="g4291"
         style="fill:#282828;fill-opacity:1" />
      <g
         id="g4293"
         style="fill:#282828;fill-opacity:1" />
      <g
         id="g4295"
         style="fill:#282828;fill-opacity:1" />
      <g
         id="g4297"
         style="fill:#282828;fill-opacity:1" />
      <g
         id="g4299"
         style="fill:#282828;fill-opacity:1" />
      <g
         id="g4301"
         style="fill:#282828;fill-opacity:1" />
      <g
         id="g4303"
         style="fill:#282828;fill-opacity:1" />
      <g
         id="g4305"
         style="fill:#282828;fill-opacity:1" />
      <g
         id="g4307"
         style="fill:#282828;fill-opacity:1" />
      <g
         id="g4309"
         style="fill:#282828;fill-opacity:1" />
      <g
         id="g4311"
         style="fill:#282828;fill-opacity:1" />
      <g
         id="g4313"
         style="fill:#282828;fill-opacity:1" />
      <g
         id="g4315"
         style="fill:#282828;fill-opacity:1" />
      <g
         id="g4317"
         style="fill:#282828;fill-opacity:1" />
    </g>
    <g
       transform="matrix(0.15741504,0.02888919,-0.02888919,0.15741504,50.976161,241.98674)"
       id="g4457"
       style="fill:#37c871;fill-opacity:1;stroke-width:1.10558581;stroke-miterlimit:4;stroke-dasharray:none">
      <g
         id="g4459"
         style="fill:#37c871;fill-opacity:1;stroke-width:1.10558581;stroke-miterlimit:4;stroke-dasharray:none">
        <g
           id="g4461"
           style="fill:#37c871;fill-opacity:1;stroke-width:1.10558581;stroke-miterlimit:4;stroke-dasharray:none">
          <path
             inkscape:connector-curvature="0"
             d="m 481.519,123.22 -0.009,0 -20.71,-2.227 0,-14.327 -460.8,0 0,51.2 443.733,0 0,17.067 -443.733,0 0,179.2 c 0,15.428 10.351,28.348 24.422,32.563 -0.009,7.774 2.449,15.292 7.398,21.436 5.717,7.1 13.867,11.537 22.886,12.51 l 394.061,44.228 c 1.229,0.137 2.449,0.196 3.661,0.196 17.203,0 32.043,-13.013 33.937,-30.601 l 25.438,-273.656 c 2.015,-18.705 -11.57,-35.575 -30.284,-37.589 z M 264.533,252.031 c 0,-4.719 3.823,-8.533 8.533,-8.533 l 136.534,0 c 4.71,0 8.533,3.814 8.533,8.533 l 0,76.501 c 0,4.719 -3.823,8.533 -8.533,8.533 l -136.533,0 c -4.71,0 -8.533,-3.814 -8.533,-8.533 l 0,-76.501 z m -119.466,-42.966 68.267,0 c 4.71,0 8.533,3.823 8.533,8.533 0,4.719 -3.823,8.533 -8.533,8.533 l -68.267,0 c -4.71,0 -8.533,-3.814 -8.533,-8.533 -0.001,-4.71 3.822,-8.533 8.533,-8.533 z m 76.8,42.667 c 0,4.719 -3.823,8.533 -8.533,8.533 l -25.6,0 c -4.71,0 -8.533,-3.814 -8.533,-8.533 0,-4.71 3.823,-8.533 8.533,-8.533 l 25.6,0 c 4.71,0 8.533,3.823 8.533,8.533 z m -179.2,-42.667 68.267,0 c 4.71,0 8.533,3.823 8.533,8.533 0,4.719 -3.823,8.533 -8.533,8.533 l -68.267,0 c -4.71,0 -8.533,-3.814 -8.533,-8.533 -10e-4,-4.71 3.822,-8.533 8.533,-8.533 z m -8.534,42.667 c 0,-4.71 3.823,-8.533 8.533,-8.533 l 110.934,0 c 4.71,0 8.533,3.823 8.533,8.533 0,4.719 -3.823,8.533 -8.533,8.533 l -110.933,0 c -4.711,0 -8.534,-3.814 -8.534,-8.533 z M 494.822,159.103 469.385,432.75 c -1.007,9.361 -9.387,16.154 -18.756,15.155 L 56.567,403.677 c -4.531,-0.486 -8.602,-2.705 -11.46,-6.255 -2.142,-2.662 -3.413,-5.828 -3.712,-9.156 l 385.271,0 c 18.825,0 34.133,-15.3 34.133,-34.133 l 0,-179.2 0,-17.067 0,-19.703 18.893,2.022 c 9.353,1.015 16.146,9.446 15.13,18.918 z"
             id="path4463"
             style="fill:#37c871;fill-opacity:1;stroke-width:1.10558581;stroke-miterlimit:4;stroke-dasharray:none" />
          <rect
             x="281.60199"
             y="260.56"
             width="119.467"
             height="59.443001"
             id="rect4465"
             style="fill:#37c871;fill-opacity:1;stroke-width:1.10558581;stroke-miterlimit:4;stroke-dasharray:none" />
          <path
             inkscape:connector-curvature="0"
             d="m 460.802,81.07 c 0,-18.825 -15.309,-34.133 -34.133,-34.133 l -392.534,0 C 15.31,46.937 0.002,62.246 0.002,81.07 l 0,8.533 460.8,0 0,-8.533 z"
             id="path4467"
             style="fill:#37c871;fill-opacity:1;stroke-width:1.10558581;stroke-miterlimit:4;stroke-dasharray:none" />
        </g>
      </g>
    </g>
  </g>
</svg>
